<svg width="24" height="25" viewBox="0 0 24 25" fill="none" xmlns="http://www.w3.org/2000/svg">
<path fill-rule="evenodd" clip-rule="evenodd" d="M20.8541 13.1235V21.1279C20.8541 22.8425 19.4468 24.2499 17.7226 24.2499H5.61126C3.8871 24.2499 2.47974 22.8425 2.47974 21.1279V13.1235C2.47974 11.4963 3.73734 10.1427 5.33862 10.0102C5.42694 9.99194 5.5143 9.99194 5.61126 9.99194H17.7226C17.8196 9.99194 17.9079 9.99194 17.9953 10.0102C19.5956 10.1427 20.8541 11.4963 20.8541 13.1235Z" stroke="#51D496"/>
<path fill-rule="evenodd" clip-rule="evenodd" d="M11.6662 19.1168V19.1168C11.0182 19.1168 10.4873 18.5859 10.4873 17.937V16.304C10.4873 15.657 11.0182 15.1261 11.6662 15.1261C12.3151 15.1261 12.8451 15.657 12.8451 16.304V17.937C12.8451 18.5859 12.3151 19.1168 11.6662 19.1168Z" stroke="#51D496"/>
<path d="M5.17163 7.98038C5.17163 4.3919 8.08235 1.48022 11.6622 1.48022C15.2516 1.48022 18.1624 4.3919 18.1624 7.98038" stroke="#51D496" stroke-linecap="round"/>
</svg>
